<?xml version="1.0" encoding="UTF-8"?>
<svg xmlns="http://www.w3.org/2000/svg" xmlns:xlink="http://www.w3.org/1999/xlink" width="512.3pt" height="602.3pt" viewBox="0 0 512.3 602.3" version="1.1">
<g id="surface1" fill="#000">
<path style=" stroke:none;fill-rule:evenodd;fill:rgb(100%,100%,100%);fill-opacity:1;" d="M 0.0234375 602.234375 L 512.375 602.234375 L 512.375 -0.0351563 L 0.0234375 -0.0351563 Z M 0.0234375 602.234375 "/>
<path style=" stroke:none;fill-rule:evenodd;fill:rgb(10.594177%,9.812927%,9.423828%);fill-opacity:1;" d="M 280.117188 234.976563 C 235.839844 221.515625 192.789063 244.355469 151.222656 304.265625 C 195.796875 338.453125 199.191406 375.222656 276.550781 368.96875 C 211.191406 395.425781 160.953125 351.304688 111.992188 301.203125 C 173.671875 237.796875 230.671875 208.714844 280.117188 234.976563 Z M 280.117188 234.976563 "/>
<path style=" stroke:none;fill-rule:evenodd;fill:rgb(10.594177%,9.812927%,9.423828%);fill-opacity:1;" d="M 219.15625 245.578125 C 256.90625 234.378906 293.605469 253.390625 329.039063 303.253906 C 291.042969 331.710938 288.148438 362.316406 222.195313 357.109375 C 277.917969 379.132813 320.746094 342.410156 362.484375 300.710938 C 309.902344 247.929688 261.3125 223.726563 219.15625 245.578125 Z M 219.15625 245.578125 "/>
<path style=" stroke:none;fill-rule:evenodd;fill:rgb(10.594177%,9.812927%,9.423828%);fill-opacity:1;" d="M 282.960938 235.765625 C 314.703125 251.390625 345.273438 269.746094 370.191406 301.296875 C 347.285156 328.105469 318.917969 351.285156 288.066406 362.570313 C 333.78125 361.269531 367.289063 331.109375 400.40625 300.019531 C 361.761719 263.441406 322.738281 238.296875 282.960938 235.765625 Z M 282.960938 235.765625 "/>
<path style=" stroke:none;fill-rule:evenodd;fill:rgb(10.594177%,9.812927%,9.423828%);fill-opacity:1;" d="M 283.875 276.3125 C 296.996094 276.3125 307.628906 286.949219 307.628906 300.066406 C 307.628906 313.183594 296.996094 323.820313 283.875 323.820313 C 270.757813 323.820313 260.121094 313.183594 260.121094 300.066406 C 260.121094 286.949219 270.757813 276.3125 283.875 276.3125 Z M 283.875 276.3125 "/>
</g>
</svg>
